<svg width="491" height="105" viewBox="0 0 491 105" fill="none" xmlns="http://www.w3.org/2000/svg">
<path d="M23.3601 45.9972L17.5263 81H0.773793L14.1758 0.272725H30.4553L25.4098 31.1367H26.0799C28.0245 27.5629 30.6918 24.7642 34.0817 22.7408C37.4716 20.691 41.4791 19.6662 46.1041 19.6662C50.3086 19.6662 53.8168 20.5859 56.6285 22.4254C59.4666 24.2386 61.4769 26.8533 62.6595 30.2695C63.842 33.6594 64.0391 37.7195 63.2507 42.4496L56.7862 81H40.0337L45.9464 45.4453C46.5508 41.7138 46.0646 38.81 44.4879 36.734C42.9375 34.658 40.4673 33.62 37.0774 33.62C34.7912 33.62 32.6889 34.1062 30.7706 35.0785C28.8523 36.0508 27.2362 37.4698 25.9222 39.3356C24.6346 41.1751 23.7805 43.3956 23.3601 45.9972ZM97.3568 82.1825C91.1814 82.1825 86.0702 80.8686 82.0233 78.2408C77.9765 75.5866 75.1253 71.9077 73.4697 67.2038C71.8405 62.4737 71.5383 56.9684 72.5631 50.6879C73.5617 44.4861 75.6377 39.0597 78.7911 34.4084C81.9445 29.7571 85.952 26.1438 90.8135 23.5685C95.675 20.967 101.154 19.6662 107.251 19.6662C113.4 19.6662 118.498 20.9933 122.545 23.6474C126.592 26.2752 129.443 29.9542 131.098 34.6843C132.754 39.4144 133.069 44.9197 132.044 51.2003C131.019 57.3757 128.917 62.7891 125.737 67.4403C122.558 72.0916 118.55 75.718 113.715 78.3196C108.88 80.8949 103.427 82.1825 97.3568 82.1825ZM99.0123 69.1747C101.85 69.1747 104.36 68.3732 106.541 66.7702C108.748 65.141 110.575 62.9336 112.02 60.1481C113.492 57.3363 114.517 54.1566 115.095 50.609C115.673 47.114 115.712 44.0131 115.213 41.3065C114.714 38.5735 113.663 36.4187 112.06 34.842C110.483 33.2653 108.315 32.4769 105.556 32.4769C102.718 32.4769 100.195 33.2915 97.9875 34.9208C95.7801 36.5238 93.9537 38.7312 92.5084 41.543C91.0631 44.3548 90.0514 47.5476 89.4733 51.1214C88.9214 54.5902 88.882 57.6911 89.355 60.424C89.828 63.1307 90.866 65.2724 92.469 66.8491C94.072 68.3995 96.2531 69.1747 99.0123 69.1747ZM155.104 82.1431C151.267 82.1431 147.943 81.473 145.131 80.1328C142.345 78.7663 140.296 76.7429 138.982 74.0625C137.668 71.3821 137.339 68.0579 137.996 64.0898C138.574 60.7262 139.665 57.9144 141.268 55.6545C142.897 53.3683 144.881 51.5288 147.22 50.136C149.559 48.7433 152.147 47.679 154.985 46.9432C157.85 46.2074 160.806 45.7081 163.854 45.4453C167.376 45.0774 170.24 44.7227 172.447 44.381C174.681 44.0394 176.35 43.5533 177.453 42.9226C178.557 42.2656 179.227 41.2933 179.464 40.0057V39.7692C179.858 37.299 179.398 35.3807 178.084 34.0142C176.796 32.6214 174.734 31.9251 171.896 31.9251C168.9 31.9251 166.351 32.582 164.248 33.8959C162.172 35.2099 160.688 36.8785 159.794 38.902L144.5 37.6406C145.867 33.9616 147.93 30.782 150.689 28.1016C153.474 25.3949 156.825 23.3189 160.74 21.8736C164.656 20.402 169.044 19.6662 173.906 19.6662C177.269 19.6662 180.41 20.0604 183.327 20.8487C186.27 21.6371 188.806 22.859 190.934 24.5146C193.089 26.1701 194.639 28.2986 195.585 30.9002C196.558 33.4755 196.755 36.5632 196.177 40.1633L189.358 81H173.433L174.852 72.604H174.379C173.091 74.4961 171.514 76.1648 169.649 77.6101C167.783 79.0291 165.641 80.146 163.224 80.9606C160.806 81.7489 158.099 82.1431 155.104 82.1431ZM161.844 70.5543C164.288 70.5543 166.535 70.0682 168.584 69.0959C170.66 68.0973 172.369 66.7571 173.709 65.0753C175.075 63.3935 175.942 61.4883 176.31 59.3597L177.335 52.9347C176.81 53.2763 176.047 53.5785 175.049 53.8413C174.077 54.104 173.012 54.3537 171.856 54.5902C170.726 54.8004 169.583 54.9975 168.427 55.1815C167.271 55.3391 166.233 55.4968 165.313 55.6545C163.289 55.9435 161.476 56.4034 159.873 57.0341C158.27 57.6648 156.969 58.5188 155.971 59.5962C154.972 60.6474 154.355 61.9613 154.118 63.538C153.75 65.8242 154.289 67.5717 155.734 68.7805C157.206 69.9631 159.242 70.5543 161.844 70.5543ZM225.09 45.9972L219.256 81H202.503L212.594 20.4545H228.558L226.824 31.1367H227.494C229.412 27.5891 232.119 24.7905 235.614 22.7408C239.135 20.691 243.143 19.6662 247.636 19.6662C251.841 19.6662 255.349 20.5859 258.161 22.4254C260.999 24.2649 262.996 26.8796 264.152 30.2695C265.335 33.6594 265.532 37.7195 264.744 42.4496L258.279 81H241.487L247.439 45.4453C248.044 41.7401 247.571 38.8494 246.02 36.7734C244.496 34.6712 242.039 33.62 238.649 33.62C236.389 33.62 234.313 34.1062 232.421 35.0785C230.529 36.0508 228.939 37.4698 227.652 39.3356C226.39 41.1751 225.536 43.3956 225.09 45.9972ZM294.928 104.966C289.462 104.966 284.903 104.217 281.25 102.719C277.623 101.248 274.864 99.2372 272.972 96.6882C271.106 94.1392 270.081 91.2749 269.898 88.0952L285.822 86.006C286.111 87.2411 286.663 88.3842 287.478 89.4354C288.319 90.4865 289.514 91.3274 291.065 91.9581C292.642 92.5888 294.678 92.9041 297.175 92.9041C300.827 92.9041 304.007 92.0107 306.714 90.2237C309.42 88.4631 311.089 85.5067 311.72 81.3548L313.533 70.2784H312.823C311.825 71.9602 310.458 73.5501 308.724 75.0479C307.016 76.5458 304.927 77.7678 302.457 78.7138C300.013 79.6598 297.188 80.1328 293.982 80.1328C289.409 80.1328 285.441 79.0817 282.078 76.9794C278.74 74.8509 276.323 71.6055 274.825 67.2433C273.353 62.8548 273.169 57.31 274.273 50.609C275.429 43.7504 277.505 38.0217 280.501 33.4229C283.497 28.8242 287.044 25.3817 291.144 23.0955C295.243 20.8093 299.513 19.6662 303.954 19.6662C307.344 19.6662 310.077 20.2443 312.153 21.4006C314.256 22.5305 315.872 23.9496 317.002 25.6577C318.132 27.3395 318.933 28.995 319.406 30.6243H320.076L321.732 20.4545H338.405L328.236 81.5913C327.421 86.7681 325.463 91.0778 322.362 94.5202C319.288 97.989 315.385 100.591 310.655 102.325C305.925 104.086 300.683 104.966 294.928 104.966ZM301.235 67.5192C303.915 67.5192 306.319 66.8491 308.448 65.5089C310.603 64.1424 312.403 62.1978 313.848 59.6751C315.294 57.1261 316.305 54.0778 316.883 50.5302C317.461 46.9826 317.448 43.908 316.844 41.3065C316.266 38.6786 315.136 36.642 313.454 35.1967C311.798 33.7514 309.617 33.0288 306.911 33.0288C304.125 33.0288 301.681 33.7777 299.579 35.2756C297.477 36.7472 295.729 38.7969 294.336 41.4247C292.97 44.0526 292.011 47.0877 291.459 50.5302C290.881 54.0252 290.855 57.0472 291.38 59.5962C291.932 62.119 293.023 64.0767 294.652 65.4695C296.281 66.8359 298.475 67.5192 301.235 67.5192ZM369.979 0.272725L379.36 61.6065H380.109L409.791 0.272725H428.711L387.48 81H365.485L351.019 0.272725H369.979ZM467.833 55.2209L473.627 20.4545H490.419L480.328 81H464.207L466.02 70.0025H465.389C463.523 73.5501 460.804 76.4013 457.23 78.5561C453.656 80.7109 449.596 81.7884 445.05 81.7884C441.003 81.7884 437.587 80.8686 434.801 79.0291C432.042 77.1896 430.084 74.5749 428.928 71.185C427.772 67.7951 427.575 63.7351 428.337 59.005L434.801 20.4545H451.593L445.68 56.0092C445.129 59.5831 445.628 62.408 447.178 64.484C448.729 66.56 451.094 67.598 454.273 67.598C456.297 67.598 458.255 67.1381 460.147 66.2184C462.065 65.2724 463.721 63.8796 465.113 62.0401C466.506 60.2006 467.413 57.9276 467.833 55.2209Z" fill="black"/>
</svg>
