<svg width="358" height="131" viewBox="0 0 358 131" fill="none" xmlns="http://www.w3.org/2000/svg">
<path d="M0.782 95.888C3.89 89.524 7.109 82.864 10.439 75.908C13.843 68.878 17.321 61.811 20.873 54.707C24.425 47.603 27.94 40.832 31.418 34.394C32.676 32.174 33.823 30.435 34.859 29.177C35.969 27.919 37.412 27.29 39.188 27.29C39.854 27.29 40.631 27.401 41.519 27.623C42.407 27.845 43.258 27.882 44.072 27.734C43.11 28.77 41.778 30.583 40.076 33.173C38.448 35.763 36.598 38.871 34.526 42.497C32.528 46.123 30.382 50.045 28.088 54.263C25.868 58.407 23.648 62.625 21.428 66.917C19.282 71.135 17.284 75.094 15.434 78.794C16.914 76.87 18.431 75.057 19.985 73.355C21.539 71.653 23.056 70.173 24.536 68.915C26.164 67.435 28.199 65.881 30.641 64.253C33.157 62.625 35.636 61.219 38.078 60.035C40.594 58.851 42.592 58.259 44.072 58.259C44.59 58.259 44.96 58.296 45.182 58.37C45.182 58.37 44.775 59.11 43.961 60.59C43.147 62.07 42.111 63.957 40.853 66.251C39.669 68.545 38.411 71.024 37.079 73.688C35.821 76.352 34.711 78.905 33.749 81.347C32.787 83.715 32.158 85.676 31.862 87.23C31.64 88.414 31.529 89.413 31.529 90.227C31.529 91.411 31.751 92.225 32.195 92.669C32.639 93.039 33.12 93.224 33.638 93.224C34.896 93.224 36.228 92.595 37.634 91.337C39.114 90.005 40.557 88.34 41.963 86.342C43.369 84.344 44.664 82.235 45.848 80.015C47.106 77.721 48.105 75.575 48.845 73.577C49.733 73.577 50.177 73.91 50.177 74.576C49.363 76.574 48.327 78.794 47.069 81.236C45.885 83.604 44.516 85.861 42.962 88.007C41.408 90.153 39.706 91.929 37.856 93.335C36.006 94.741 34.045 95.444 31.973 95.444C30.493 95.444 28.976 94.926 27.422 93.89C25.868 92.854 25.091 90.967 25.091 88.229C25.091 87.415 25.165 86.564 25.313 85.676C25.461 84.714 25.72 83.641 26.09 82.457C26.534 80.977 27.274 79.349 28.31 77.573C29.346 75.723 30.678 73.429 32.306 70.691C33.046 69.433 33.416 68.434 33.416 67.694C33.416 66.806 32.972 66.362 32.084 66.362C31.344 66.362 30.345 66.732 29.087 67.472C27.829 68.212 26.238 69.507 24.314 71.357C22.464 73.133 20.17 75.723 17.432 79.127C14.694 82.531 11.771 87.304 8.663 93.446C8.145 94.408 7.553 94.926 6.887 95C6.295 95 5.481 95.037 4.445 95.111C3.779 95.185 3.113 95.222 2.447 95.222C1.781 95.296 1.226 95.518 0.782 95.888ZM55.4981 95C52.4641 95 50.2071 93.927 48.7271 91.781C47.3211 89.561 46.6181 86.897 46.6181 83.789C46.6181 80.903 47.1731 77.906 48.2831 74.798C49.4671 71.394 51.0951 68.286 53.1671 65.474C55.3131 62.662 57.6441 60.405 60.1601 58.703C62.7501 56.927 65.3031 56.039 67.8191 56.039C70.8531 56.039 73.0731 57.075 74.4791 59.147C75.9591 61.219 76.6991 63.846 76.6991 67.028C76.6991 69.248 76.3291 71.579 75.5891 74.021C74.8491 76.463 73.8501 78.868 72.5921 81.236C73.5541 82.198 74.9231 82.679 76.6991 82.679C78.7711 82.679 80.5471 82.013 82.0271 80.681C83.5071 79.349 84.9501 76.981 86.3561 73.577C87.2441 73.577 87.6881 73.91 87.6881 74.576C86.2821 77.98 84.6541 80.496 82.8041 82.124C81.0281 83.678 78.7341 84.418 75.9221 84.344C74.2201 84.344 72.8141 83.863 71.7041 82.901C69.6321 86.305 67.1531 89.191 64.2671 91.559C61.4551 93.853 58.5321 95 55.4981 95ZM57.0521 92.558C58.7541 92.558 60.4561 91.855 62.1581 90.449C63.8601 88.969 65.4141 87.304 66.8201 85.454C68.2261 83.604 69.2251 82.013 69.8171 80.681C68.6331 78.535 67.9301 76.944 67.7081 75.908C67.5601 74.798 67.4861 73.984 67.4861 73.466C67.4861 72.06 67.8561 70.987 68.5961 70.247C69.3361 69.507 70.0761 69.137 70.8161 69.137C71.8521 69.137 72.7401 69.581 73.4801 70.469C73.6281 69.655 73.7391 68.915 73.8131 68.249C73.8871 67.509 73.9241 66.806 73.9241 66.14C73.9241 64.216 73.5541 62.662 72.8141 61.478C72.1481 60.22 71.0751 59.591 69.5951 59.591C68.0411 59.591 66.4131 60.257 64.7111 61.589C63.0091 62.921 61.3811 64.697 59.8271 66.917C58.3471 69.137 57.0521 71.616 55.9421 74.354C54.9801 76.648 54.2401 78.831 53.7221 80.903C53.2041 82.901 52.9451 84.751 52.9451 86.453C52.9451 88.303 53.2781 89.783 53.9441 90.893C54.6101 92.003 55.6461 92.558 57.0521 92.558ZM110.431 95.333C108.729 95.333 107.212 94.852 105.88 93.89C104.622 92.928 103.993 90.967 103.993 88.007C103.993 86.749 104.067 85.565 104.215 84.455C104.437 83.345 104.696 82.161 104.992 80.903C104.326 82.013 103.401 83.382 102.217 85.01C101.033 86.638 99.7009 88.229 98.2209 89.783C96.8149 91.337 95.3349 92.632 93.7809 93.668C92.3009 94.704 90.8949 95.222 89.5629 95.222C87.6389 95.222 86.0849 94.371 84.9009 92.669C83.7169 90.893 83.1249 88.599 83.1249 85.787C83.1249 82.753 83.8279 79.497 85.2339 76.019C86.6399 72.541 88.5639 69.211 91.0059 66.029C93.4479 62.847 96.2599 60.257 99.4419 58.259C102.624 56.261 105.954 55.262 109.432 55.262C111.134 55.262 112.762 55.558 114.316 56.15C115.87 56.668 117.239 57.556 118.423 58.814C118.941 59.332 119.2 59.924 119.2 60.59C119.2 61.034 119.015 61.404 118.645 61.7C118.275 61.996 117.794 62.07 117.202 61.922C116.388 59.332 114.649 58.037 111.985 58.037C110.727 58.037 109.284 58.444 107.656 59.258C105.658 60.294 103.512 61.959 101.218 64.253C98.9979 66.473 96.8889 69.026 94.8909 71.912C92.9669 74.724 91.3759 77.573 90.1179 80.459C88.8599 83.345 88.2309 85.972 88.2309 88.34C88.2309 90.782 89.1559 92.003 91.0059 92.003C92.6339 92.003 94.2989 91.226 96.0009 89.672C97.7769 88.118 99.4419 86.194 100.996 83.9C102.624 81.532 104.104 79.201 105.436 76.907C106.768 74.613 107.804 72.763 108.544 71.357C109.654 69.359 110.69 67.694 111.652 66.362C112.614 65.03 113.983 64.364 115.759 64.364C116.573 64.364 117.387 64.475 118.201 64.697C119.015 64.919 119.866 64.956 120.754 64.808C118.534 67.028 116.573 69.655 114.871 72.689C113.243 75.723 111.985 78.72 111.097 81.68C110.209 84.566 109.765 87.008 109.765 89.006C109.765 91.226 110.505 92.336 111.985 92.336C113.169 92.336 114.427 91.67 115.759 90.338C117.165 89.006 118.497 87.341 119.755 85.343C121.087 83.271 122.308 81.199 123.418 79.127C124.528 76.981 125.416 75.131 126.082 73.577C126.452 73.577 126.748 73.614 126.97 73.688C127.266 73.762 127.414 74.058 127.414 74.576C127.34 74.872 127.192 75.205 126.97 75.575C126.822 75.871 126.563 76.426 126.193 77.24C125.601 78.424 124.787 80.015 123.751 82.013C122.715 84.011 121.494 86.046 120.088 88.118C118.682 90.116 117.165 91.818 115.537 93.224C113.909 94.63 112.207 95.333 110.431 95.333ZM115.47 95.888C118.134 90.486 120.687 85.158 123.129 79.904C125.571 74.576 128.087 69.507 130.677 64.697C132.157 62.033 133.415 60.183 134.451 59.147C135.487 58.037 136.856 57.482 138.558 57.482C139.15 57.482 139.779 57.593 140.445 57.815C141.111 57.963 141.777 58.037 142.443 58.037C142.887 58.037 143.22 58 143.442 57.926C142.406 58.518 141.037 59.998 139.335 62.366C137.707 64.66 136.042 67.324 134.34 70.358C132.638 73.392 131.121 76.241 129.789 78.905C131.195 77.203 132.675 75.501 134.229 73.799C135.783 72.097 137.485 70.469 139.335 68.915C141.111 67.361 143.22 65.77 145.662 64.142C148.178 62.44 150.62 61.034 152.988 59.924C155.356 58.814 157.243 58.259 158.649 58.259C159.167 58.259 159.537 58.296 159.759 58.37C159.759 58.37 159.352 59.11 158.538 60.59C157.724 61.996 156.688 63.883 155.43 66.251C154.246 68.545 153.025 71.024 151.767 73.688C150.509 76.278 149.362 78.794 148.326 81.236C147.364 83.604 146.735 85.602 146.439 87.23C146.217 88.192 146.106 89.08 146.106 89.894C146.106 91.078 146.328 91.855 146.772 92.225C147.216 92.595 147.697 92.78 148.215 92.78C149.621 92.78 151.064 92.151 152.544 90.893C154.024 89.635 155.43 88.044 156.762 86.12C158.168 84.122 159.463 82.013 160.647 79.793C161.831 77.573 162.83 75.501 163.644 73.577C164.532 73.577 164.976 73.91 164.976 74.576C164.162 76.574 163.126 78.794 161.868 81.236C160.684 83.604 159.315 85.861 157.761 88.007C156.281 90.153 154.616 91.929 152.766 93.335C150.916 94.741 148.918 95.444 146.772 95.444C145.292 95.444 143.738 94.926 142.11 93.89C140.556 92.854 139.779 90.93 139.779 88.118C139.779 87.304 139.853 86.453 140.001 85.565C140.149 84.603 140.408 83.567 140.778 82.457C141.37 80.977 142.073 79.386 142.887 77.684C143.701 75.982 145.033 73.651 146.883 70.691C147.401 69.877 147.697 69.248 147.771 68.804C147.919 68.36 147.993 67.99 147.993 67.694C147.993 66.806 147.586 66.362 146.772 66.362C146.106 66.362 145.107 66.732 143.775 67.472C142.517 68.212 140.926 69.507 139.002 71.357C137.152 73.133 134.932 75.649 132.342 78.905C129.826 82.161 126.903 86.971 123.573 93.335C123.055 94.297 122.463 94.815 121.797 94.889C121.205 94.963 120.354 95.037 119.244 95.111C118.504 95.185 117.801 95.222 117.135 95.222C116.469 95.296 115.914 95.518 115.47 95.888ZM155.973 130.409C148.943 130.409 145.428 127.523 145.428 121.751C145.428 119.013 146.39 116.571 148.314 114.425C150.238 112.279 152.532 110.429 155.196 108.875C158.896 106.655 162.522 104.879 166.074 103.547C169.626 102.215 173.03 101.031 176.286 99.995C179.542 99.033 182.576 97.96 185.388 96.776C186.054 94.852 186.609 92.743 187.053 90.449C187.497 88.081 187.83 85.787 188.052 83.567C188.274 81.347 188.385 79.423 188.385 77.795C188.385 76.093 188.274 74.983 188.052 74.465C187.238 76.019 186.128 77.943 184.722 80.237C183.39 82.531 181.799 84.825 179.949 87.119C178.173 89.339 176.286 91.189 174.288 92.669C172.29 94.149 170.255 94.889 168.183 94.889C167.443 94.889 166.74 94.778 166.074 94.556C164.002 93.668 162.485 92.41 161.523 90.782C160.635 89.154 160.191 87.304 160.191 85.232C160.191 81.902 161.153 78.313 163.077 74.465C165.001 70.617 167.295 67.102 169.959 63.92C172.105 61.33 174.621 59.258 177.507 57.704C180.393 56.15 183.316 55.373 186.276 55.373C189.68 55.373 192.862 56.52 195.822 58.814C196.932 59.702 197.487 60.664 197.487 61.7C197.487 62.81 197.043 63.365 196.155 63.365C195.415 63.365 194.897 62.884 194.601 61.922C193.565 59.184 191.9 57.815 189.606 57.815C187.756 57.815 185.647 58.629 183.279 60.257C180.911 61.811 178.691 63.772 176.619 66.14C174.843 68.138 173.104 70.432 171.402 73.022C169.774 75.612 168.405 78.165 167.295 80.681C166.259 83.197 165.741 85.38 165.741 87.23C165.741 88.488 166.037 89.561 166.629 90.449C167.221 91.337 168.146 91.781 169.404 91.781C171.106 91.781 172.882 90.967 174.732 89.339C176.656 87.711 178.469 85.713 180.171 83.345C181.947 80.977 183.464 78.572 184.722 76.13C186.054 73.688 186.979 71.653 187.497 70.025C188.015 68.323 188.718 67.287 189.606 66.917C190.494 66.473 191.382 66.251 192.27 66.251C193.158 66.251 193.898 66.029 194.49 65.585C194.786 67.213 194.971 68.878 195.045 70.58C195.193 72.208 195.267 73.873 195.267 75.575C195.267 78.979 195.045 82.087 194.601 84.899C194.231 87.711 193.565 90.708 192.603 93.89C195.267 92.262 197.561 90.227 199.485 87.785C201.483 85.269 203.111 82.753 204.369 80.237C205.701 77.647 206.774 75.427 207.588 73.577C208.476 73.577 208.92 73.91 208.92 74.576C207.958 76.574 206.737 79.016 205.257 81.902C203.851 84.788 202.038 87.6 199.818 90.338C197.672 93.002 194.971 95.074 191.715 96.554C190.457 100.106 188.644 103.843 186.276 107.765C183.982 111.687 181.244 115.35 178.062 118.754C174.88 122.232 171.402 125.044 167.628 127.19C163.854 129.336 159.969 130.409 155.973 130.409ZM153.309 128.189C154.937 128.189 156.639 127.819 158.415 127.079C160.265 126.413 162.004 125.599 163.632 124.637C165.26 123.675 166.518 122.861 167.406 122.195C169.108 120.863 170.847 119.198 172.623 117.2C174.399 115.202 175.953 113.278 177.285 111.428C178.543 109.652 179.838 107.765 181.17 105.767C182.502 103.843 183.575 101.919 184.389 99.995L179.838 101.438C177.396 102.178 174.695 103.066 171.735 104.102C168.849 105.212 165.963 106.433 163.077 107.765C160.191 109.097 157.564 110.54 155.196 112.094C153.124 113.5 151.422 115.35 150.09 117.644C148.684 119.938 147.981 121.936 147.981 123.638C147.981 124.896 148.425 125.969 149.313 126.857C150.127 127.745 151.459 128.189 153.309 128.189ZM284.01 21.851C284.01 24.663 283.455 28.141 282.345 32.285C281.309 36.355 279.903 40.832 278.127 45.716C276.425 50.526 274.612 55.447 272.688 60.479C270.764 65.511 268.914 70.395 267.138 75.131C265.436 79.793 264.03 84.048 262.92 87.896C261.884 91.67 261.366 94.704 261.366 96.998C261.366 100.476 262.513 102.215 264.807 102.215C267.027 102.215 269.728 101.179 272.91 99.107C276.092 97.109 279.459 94.408 283.011 91.004C286.637 87.526 290.189 83.604 293.667 79.238C297.145 74.798 300.29 70.21 303.102 65.474C305.988 60.738 308.282 56.076 309.984 51.488C311.686 46.826 312.537 42.571 312.537 38.723C312.537 36.133 312.167 33.802 311.427 31.73C310.761 29.658 309.318 28.622 307.098 28.622C306.136 28.622 305.359 28.437 304.767 28.067C304.249 27.623 303.99 27.216 303.99 26.846C303.99 26.106 304.619 25.736 305.877 25.736C306.765 25.736 307.875 26.069 309.207 26.735C310.613 27.327 311.982 28.289 313.314 29.621C314.72 30.879 315.904 32.507 316.866 34.505C317.828 36.503 318.309 38.871 318.309 41.609C318.309 45.013 317.384 48.972 315.534 53.486C313.758 57.926 311.316 62.551 308.208 67.361C305.174 72.097 301.696 76.759 297.774 81.347C293.926 85.861 289.893 89.968 285.675 93.668C281.457 97.294 277.313 100.18 273.243 102.326C269.247 104.546 265.547 105.656 262.143 105.656C259.257 105.656 257.333 104.768 256.371 102.992C255.409 101.216 254.928 98.885 254.928 95.999C254.928 91.485 255.668 86.564 257.148 81.236C258.702 75.908 260.589 70.395 262.809 64.697C265.103 58.925 267.36 53.19 269.58 47.492C271.874 41.794 273.761 36.318 275.241 31.064C276.795 25.81 277.572 20.963 277.572 16.523C277.572 11.491 276.129 8.087 273.243 6.311C270.431 4.535 266.731 3.647 262.143 3.647C257.629 3.647 252.819 4.498 247.713 6.2C242.681 7.902 237.723 10.307 232.839 13.415C228.029 16.523 223.663 20.26 219.741 24.626C215.819 28.918 212.674 33.728 210.306 39.056C208.012 44.31 206.865 49.971 206.865 56.039C206.865 59.591 207.457 62.921 208.641 66.029C209.899 69.063 211.897 71.542 214.635 73.466C217.373 75.316 220.962 76.241 225.402 76.241C228.732 76.241 231.914 75.538 234.948 74.132C238.056 72.726 240.794 70.839 243.162 68.471C245.53 66.029 247.417 63.328 248.823 60.368C250.229 57.408 250.932 54.374 250.932 51.266C250.932 48.75 250.414 46.567 249.378 44.717C248.342 42.793 246.603 41.831 244.161 41.831C243.199 41.831 242.2 41.979 241.164 42.275C240.128 42.571 239.425 42.719 239.055 42.719C238.685 42.719 238.5 42.497 238.5 42.053C238.5 41.905 238.574 41.72 238.722 41.498C238.87 41.276 239.129 41.054 239.499 40.832C240.313 40.388 241.312 40.055 242.496 39.833C243.68 39.537 244.716 39.389 245.604 39.389C248.86 39.389 251.376 40.536 253.152 42.83C254.928 45.124 255.816 47.899 255.816 51.155C255.816 54.707 254.891 58.148 253.041 61.478C251.191 64.808 248.712 67.805 245.604 70.469C242.57 73.133 239.129 75.242 235.281 76.796C231.507 78.35 227.622 79.127 223.626 79.127C218.668 79.127 214.45 77.906 210.972 75.464C207.568 73.022 204.978 69.84 203.202 65.918C201.5 61.922 200.649 57.667 200.649 53.153C200.649 47.307 201.796 41.757 204.09 36.503C206.458 31.175 209.677 26.365 213.747 22.073C217.817 17.707 222.442 13.933 227.622 10.751C232.802 7.56899 238.241 5.12699 243.939 3.42499C249.711 1.649 255.446 0.760996 261.144 0.760996C265.436 0.760996 269.284 1.464 272.688 2.87C276.166 4.27599 278.904 6.53299 280.902 9.64099C282.974 12.675 284.01 16.745 284.01 21.851ZM319.693 95C318.879 95 317.88 94.815 316.696 94.445C315.586 94.075 314.587 93.409 313.699 92.447C312.885 91.411 312.478 89.894 312.478 87.896C312.478 85.972 313.107 83.752 314.365 81.236C315.623 78.72 316.733 76.5 317.695 74.576C316.881 74.576 316.474 74.243 316.474 73.577C316.548 73.355 316.881 72.652 317.473 71.468C318.065 70.284 318.768 68.878 319.582 67.25C320.396 65.622 321.173 64.068 321.913 62.588C322.727 61.034 323.356 59.85 323.8 59.036C324.688 57.408 326.094 56.594 328.018 56.594H334.9C333.642 57.556 332.495 58.629 331.459 59.813C330.497 60.923 329.276 62.995 327.796 66.029C327.796 66.029 327.537 66.547 327.019 67.583C326.501 68.619 325.835 69.951 325.021 71.579C324.281 73.133 323.504 74.724 322.69 76.352C321.95 77.98 321.321 79.349 320.803 80.459C319.841 82.531 319.212 84.196 318.916 85.454C318.62 86.638 318.472 87.748 318.472 88.784C318.472 91.226 319.286 92.447 320.914 92.447C322.69 92.447 324.836 91.004 327.352 88.118C329.424 85.676 331.459 82.753 333.457 79.349C335.455 75.945 337.342 72.43 339.118 68.804C340.968 65.178 342.596 61.922 344.002 59.036C344.816 57.408 346.259 56.594 348.331 56.594H354.436C352.808 57.926 351.143 59.924 349.441 62.588C347.813 65.252 346 68.656 344.002 72.8C343.484 73.91 342.818 75.316 342.004 77.018C341.19 78.72 340.45 80.533 339.784 82.457C339.192 84.381 338.896 86.305 338.896 88.229C338.896 90.819 339.821 92.114 341.671 92.114C344.187 92.114 346.629 90.375 348.997 86.897C351.365 83.419 353.696 78.979 355.99 73.577C356.582 73.577 356.915 73.614 356.989 73.688C357.137 73.762 357.248 74.058 357.322 74.576C356.508 76.574 355.509 78.757 354.325 81.125C353.215 83.419 351.92 85.639 350.44 87.785C349.034 89.931 347.443 91.67 345.667 93.002C343.965 94.334 342.078 95 340.006 95C338.156 95 336.639 94.334 335.455 93.002C334.271 91.596 333.679 89.635 333.679 87.119C333.679 85.121 334.049 82.975 334.789 80.681C333.531 82.901 332.088 85.121 330.46 87.341C328.832 89.561 327.093 91.411 325.243 92.891C323.393 94.297 321.543 95 319.693 95Z" fill="black"/>
</svg>
