<svg width="367" height="103" viewBox="0 0 367 103" fill="none" xmlns="http://www.w3.org/2000/svg">
<path d="M79.807 102.42C77.291 101.606 75.367 100.792 74.035 99.978C72.703 99.164 72.037 98.128 72.037 96.87C72.037 95.39 73.147 93.207 75.367 90.321C82.619 80.849 87.725 73.042 90.685 66.9C93.719 60.684 95.236 55.948 95.236 52.692C95.236 50.102 94.496 48.363 93.016 47.475C92.128 46.883 91.055 46.513 89.797 46.365C88.613 46.143 87.318 46.032 85.912 46.032C84.506 46.032 83.063 46.106 81.583 46.254C80.177 46.328 78.734 46.439 77.254 46.587C72.296 51.027 67.819 55.393 63.823 59.685C59.901 63.903 56.497 67.862 53.611 71.562C53.537 71.636 53.352 71.673 53.056 71.673C52.76 71.673 52.686 71.562 52.834 71.34C55.942 66.974 59.383 62.793 63.157 58.797C67.005 54.727 70.779 50.768 74.479 46.92C72.851 47.142 71.371 47.364 70.039 47.586C68.781 47.808 67.745 47.993 66.931 48.141C61.529 54.283 57.015 60.166 53.389 65.79C53.167 66.16 52.649 67.085 51.835 68.565C51.021 69.971 50.133 71.525 49.171 73.227V73.449C49.171 73.671 49.282 73.782 49.504 73.782C49.874 73.782 50.54 73.523 51.502 73.005C51.798 72.857 51.946 72.783 51.946 72.783C52.094 72.783 52.168 72.894 52.168 73.116C52.168 73.56 51.983 73.967 51.613 74.337C50.947 75.225 50.281 76.409 49.615 77.889C48.949 79.369 48.32 80.738 47.728 81.996C47.358 82.514 46.729 82.773 45.841 82.773C44.953 82.773 44.065 82.44 43.177 81.774C42.363 81.108 41.956 79.961 41.956 78.333C41.956 77.667 42.4 76.446 43.288 74.67C44.25 72.894 45.471 70.785 46.951 68.343C48.431 65.901 50.059 63.348 51.835 60.684C53.611 57.946 55.387 55.319 57.163 52.803C57.755 51.915 58.828 50.546 60.382 48.696C62.01 46.772 63.86 44.515 65.932 41.925C68.078 39.335 70.224 36.597 72.37 33.711C74.59 30.751 76.662 27.828 78.586 24.942C80.51 22.056 82.064 19.355 83.248 16.839C84.432 14.323 85.024 12.214 85.024 10.512C85.024 7.774 83.359 6.405 80.029 6.405C77.439 6.405 74.183 6.738 70.261 7.404C66.339 8.07 62.01 8.995 57.274 10.179C52.538 11.289 47.728 12.621 42.844 14.175C37.96 15.655 33.261 17.283 28.747 19.059C24.233 20.761 20.163 22.537 16.537 24.387C12.985 26.163 10.21 27.939 8.212 29.715C6.954 30.825 6.325 32.231 6.325 33.933C6.325 34.747 6.584 35.487 7.102 36.153C7.62 36.745 8.508 37.041 9.766 37.041C10.136 37.189 10.321 37.337 10.321 37.485C10.321 37.559 10.173 37.67 9.877 37.818C9.581 37.892 9.248 37.892 8.878 37.818C8.286 37.67 7.287 37.189 5.881 36.375C4.475 35.561 3.18 34.599 1.996 33.489C0.812 32.305 0.22 31.269 0.22 30.381C0.22 28.753 1.626 27.014 4.438 25.164C7.324 23.314 11.135 21.427 15.871 19.503C20.607 17.579 25.861 15.766 31.633 14.064C37.479 12.288 43.436 10.734 49.504 9.402C55.572 7.996 61.307 6.886 66.709 6.072C72.185 5.258 76.884 4.851 80.806 4.851C83.84 4.851 86.134 5.11 87.688 5.628C90.352 6.516 91.684 8.255 91.684 10.845C91.684 12.843 91.018 15.211 89.686 17.949C88.428 20.613 86.763 23.388 84.691 26.274C82.693 29.16 80.584 31.972 78.364 34.71C76.144 37.448 74.109 39.89 72.259 42.036C70.409 44.108 69.003 45.662 68.041 46.698C69.669 46.402 71.112 46.18 72.37 46.032C73.702 45.81 74.812 45.625 75.7 45.477C81.398 39.705 87.392 34.155 93.682 28.827C100.046 23.499 106.484 18.726 112.996 14.508C119.508 10.216 125.909 6.84899 132.199 4.40699C138.563 1.891 144.557 0.632997 150.181 0.632997C152.549 0.632997 154.621 1.114 156.397 2.076C158.247 3.038 159.505 4.111 160.171 5.295C160.541 5.813 160.615 6.294 160.393 6.738C160.245 7.108 160.023 7.034 159.727 6.51599C158.987 5.036 157.914 4 156.508 3.40799C155.102 2.74199 153.474 2.40899 151.624 2.40899C148.368 2.40899 144.52 3.25999 140.08 4.96199C135.714 6.66399 131.052 8.88399 126.094 11.622C121.21 14.36 116.289 17.394 111.331 20.724C106.373 23.98 101.711 27.236 97.345 30.492C92.979 33.674 89.131 36.56 85.801 39.15C82.545 41.74 80.14 43.738 78.586 45.144C79.992 44.996 81.324 44.885 82.582 44.811C83.914 44.737 85.172 44.7 86.356 44.7C90.722 44.7 94.274 45.366 97.012 46.698C99.824 48.03 101.23 50.546 101.23 54.246C101.23 56.54 100.564 59.352 99.232 62.682C97.974 66.012 95.902 70.008 93.016 74.67C92.276 75.928 91.092 77.704 89.464 79.998C87.836 82.366 86.208 84.808 84.58 87.324C82.952 89.766 81.509 92.097 80.251 94.317C78.993 96.537 78.364 98.165 78.364 99.201C78.364 100.459 78.919 101.273 80.029 101.643C80.177 101.717 80.214 101.865 80.14 102.087C80.14 102.383 80.029 102.494 79.807 102.42ZM127.907 45.921C126.797 45.477 125.835 44.774 125.021 43.812C124.281 42.776 124.022 41.666 124.244 40.482C124.392 39.816 124.577 39.409 124.799 39.261C125.095 39.039 125.872 38.891 127.13 38.817L133.013 37.818C133.679 37.67 134.012 37.67 134.012 37.818C134.012 38.114 133.753 38.336 133.235 38.484C132.051 38.78 131.015 39.224 130.127 39.816C129.239 40.408 128.499 41.222 127.907 42.258C127.759 42.48 127.685 42.813 127.685 43.257C127.685 43.701 127.759 44.145 127.907 44.589C128.129 44.959 128.351 45.292 128.573 45.588C128.795 45.884 128.795 46.032 128.573 46.032C128.425 46.032 128.203 45.995 127.907 45.921ZM114.92 79.554C112.404 79.554 110.628 78.777 109.592 77.223C108.63 75.595 108.149 73.671 108.149 71.451C108.149 69.749 108.371 68.01 108.815 66.234C109.333 64.458 109.962 62.867 110.702 61.461C110.036 61.165 109.814 60.906 110.036 60.684C110.554 59.944 111.183 59.019 111.923 57.909C112.737 56.799 113.551 55.689 114.365 54.579C115.327 53.321 116.178 52.285 116.918 51.471C117.732 50.657 118.583 50.25 119.471 50.25C120.063 50.25 120.581 50.435 121.025 50.805C121.543 51.175 122.061 51.545 122.579 51.915C120.877 53.691 119.175 55.874 117.473 58.464C115.771 61.054 114.365 63.792 113.255 66.678C112.219 69.49 111.701 72.265 111.701 75.003C111.701 76.187 111.96 77.038 112.478 77.556C113.07 78 113.773 78.222 114.587 78.222C116.289 78.222 117.806 77.63 119.138 76.446C120.544 75.188 122.172 73.375 124.022 71.007C125.946 68.565 127.759 66.012 129.461 63.348C129.905 62.756 130.238 62.423 130.46 62.349C130.756 62.275 130.793 62.423 130.571 62.793C129.979 63.977 129.054 65.494 127.796 67.344C126.612 69.12 125.354 70.896 124.022 72.672C122.69 74.448 121.543 75.817 120.581 76.779C119.619 77.741 118.62 78.444 117.584 78.888C116.622 79.332 115.734 79.554 114.92 79.554ZM144.541 79.443C142.617 79.443 141.248 78.888 140.434 77.778C139.694 76.594 139.324 75.225 139.324 73.671C139.324 71.895 139.583 70.119 140.101 68.343C140.693 66.493 141.322 64.828 141.988 63.348C142.728 61.794 143.32 60.61 143.764 59.796C145.022 57.428 145.651 55.874 145.651 55.134C145.651 54.32 145.281 54.061 144.541 54.357C143.949 54.579 143.135 55.208 142.099 56.244C141.063 57.28 139.99 58.464 138.88 59.796C137.77 61.128 136.771 62.349 135.883 63.459C135.069 64.569 134.551 65.309 134.329 65.679C132.257 68.639 130.814 71.081 130 73.005C129.186 74.929 128.594 76.335 128.224 77.223C128.076 77.593 127.669 77.778 127.003 77.778C126.337 77.778 125.671 77.519 125.005 77.001C124.339 76.409 124.006 75.558 124.006 74.448C124.006 73.856 124.339 72.82 125.005 71.34C125.671 69.786 126.485 67.973 127.447 65.901C128.335 63.903 129.223 61.905 130.111 59.907C130.999 57.835 131.702 56.207 132.22 55.023C131.702 54.579 131.443 54.246 131.443 54.024C131.443 53.802 131.48 53.617 131.554 53.469C131.702 53.099 131.998 52.507 132.442 51.693C132.886 50.805 133.33 49.954 133.774 49.14C134.218 48.252 134.514 47.697 134.662 47.475C134.884 47.327 135.439 47.068 136.327 46.698C137.289 46.328 138.214 46.143 139.102 46.143H139.546C140.434 46.143 140.878 46.402 140.878 46.92C140.878 47.438 140.619 48.104 140.101 48.918C139.879 49.288 139.361 50.25 138.547 51.804C137.733 53.284 136.808 54.986 135.772 56.91C134.736 58.834 133.774 60.684 132.886 62.46C132.072 64.162 131.48 65.457 131.11 66.345C130.888 67.011 130.777 67.677 130.777 68.343C130.851 68.935 131.036 69.009 131.332 68.565C133.404 65.457 135.328 62.793 137.104 60.573C138.88 58.353 140.656 56.281 142.432 54.357C144.208 52.433 146.169 50.435 148.315 48.363C149.055 48.659 149.832 48.807 150.646 48.807C151.46 48.807 152.163 49.029 152.755 49.473C153.051 49.695 153.199 50.065 153.199 50.583C153.199 51.619 152.57 53.173 151.312 55.245C150.128 57.243 148.796 59.5 147.316 62.016C146.206 63.94 145.096 66.16 143.986 68.676C142.876 71.192 142.321 73.375 142.321 75.225C142.321 76.187 142.469 77.001 142.765 77.667C143.135 78.259 143.69 78.555 144.43 78.555C145.096 78.555 145.836 78.296 146.65 77.778C147.242 77.408 148.537 76.187 150.535 74.115C152.533 71.969 154.716 69.083 157.084 65.457C157.306 65.235 157.454 65.124 157.528 65.124C157.676 65.124 157.75 65.198 157.75 65.346C157.75 65.494 157.639 65.79 157.417 66.234C154.975 70.378 152.533 73.634 150.091 76.002C147.723 78.296 145.873 79.443 144.541 79.443ZM163.341 78C161.639 78 160.085 77.593 158.679 76.779C157.347 75.891 156.681 74.633 156.681 73.005C156.681 72.413 156.792 71.784 157.014 71.118C157.236 70.378 157.532 69.823 157.902 69.453C157.902 70.267 158.161 71.007 158.679 71.673C159.197 72.265 159.789 72.746 160.455 73.116C161.121 73.412 161.75 73.634 162.342 73.782C163.008 73.93 163.6 74.004 164.118 74.004C165.82 74.004 167.152 73.412 168.114 72.228C169.076 70.97 169.557 69.638 169.557 68.232C169.557 66.974 169.224 65.864 168.558 64.902C168.114 64.31 167.633 63.792 167.115 63.348C166.597 62.83 166.042 62.312 165.45 61.794C165.006 61.424 164.599 60.98 164.229 60.462C163.859 59.944 163.378 59.167 162.786 58.131L158.124 65.235C157.014 66.863 155.978 68.38 155.016 69.786C154.054 71.192 152.796 72.82 151.242 74.67C150.798 75.188 150.465 75.447 150.243 75.447C149.947 75.373 149.984 75.077 150.354 74.559C152.056 72.413 153.462 70.563 154.572 69.009C155.682 67.455 156.977 65.568 158.457 63.348C159.197 62.312 159.937 61.128 160.677 59.796C161.491 58.464 162.083 57.095 162.453 55.689C162.453 53.395 163.23 51.397 164.784 49.695C166.338 47.919 168.225 46.587 170.445 45.699C172.739 44.737 174.885 44.367 176.883 44.589C177.327 44.589 177.808 44.922 178.326 45.588C178.844 46.254 179.288 46.994 179.658 47.808C180.028 48.548 180.213 49.14 180.213 49.584C180.213 49.806 180.139 49.917 179.991 49.917C179.769 49.917 179.473 49.769 179.103 49.473C178.511 48.955 177.623 48.696 176.439 48.696C174.885 48.696 173.183 49.14 171.333 50.028C169.483 50.842 167.855 51.915 166.449 53.247C165.117 54.505 164.451 55.837 164.451 57.243C164.451 58.279 164.858 59.241 165.672 60.129C166.56 61.017 167.522 61.868 168.558 62.682C169.668 63.422 170.556 64.236 171.222 65.124C171.962 65.938 172.48 66.752 172.776 67.566C173.072 68.38 173.22 69.194 173.22 70.008C173.22 71.414 172.776 72.709 171.888 73.893C171 75.003 169.927 75.928 168.669 76.668C167.115 77.556 165.339 78 163.341 78ZM222.652 83.439C221.542 83.439 220.321 83.069 218.989 82.329C217.731 81.589 217.102 80.331 217.102 78.555C217.102 77.593 217.879 75.965 219.433 73.671C220.987 71.303 222.911 68.528 225.205 65.346C227.573 62.164 229.941 58.871 232.309 55.467C233.715 53.469 235.602 50.953 237.97 47.919C240.338 44.811 242.891 41.518 245.629 38.04C248.441 34.488 251.105 31.01 253.621 27.606C256.211 24.202 258.394 21.131 260.17 18.393C261.132 16.913 261.909 15.507 262.501 14.175C263.093 12.843 263.389 11.696 263.389 10.734C263.389 9.328 262.76 8.255 261.502 7.51499C260.244 6.701 258.135 6.294 255.175 6.294C252.807 6.294 249.514 6.664 245.296 7.404C241.152 8.07 236.527 9.069 231.421 10.401C226.389 11.733 221.246 13.287 215.992 15.063C211.626 16.543 207.334 18.171 203.116 19.947C198.972 21.723 195.198 23.573 191.794 25.497C188.39 27.347 185.615 29.197 183.469 31.047C182.951 31.565 182.47 32.194 182.026 32.934C181.656 33.6 181.471 34.229 181.471 34.821C181.471 35.339 181.693 35.857 182.137 36.375C182.581 36.819 183.395 37.041 184.579 37.041C185.541 37.041 186.022 37.226 186.022 37.596C186.022 37.744 185.837 37.892 185.467 38.04C185.097 38.188 184.69 38.225 184.246 38.151C181.064 37.041 178.77 35.82 177.364 34.488C176.032 33.156 175.366 31.787 175.366 30.381C175.366 29.271 176.476 27.939 178.696 26.385C180.916 24.831 183.913 23.203 187.687 21.501C191.461 19.725 195.716 17.986 200.452 16.284C205.262 14.508 210.22 12.88 215.326 11.4C221.912 9.476 228.461 7.922 234.973 6.738C241.485 5.48 247.331 4.851 252.511 4.851C257.469 4.851 261.465 5.554 264.499 6.95999C267.607 8.292 269.161 10.549 269.161 13.731C269.161 15.137 268.421 17.098 266.941 19.614C265.535 22.056 263.611 24.868 261.169 28.05C258.801 31.158 256.211 34.414 253.399 37.818C250.587 41.222 247.812 44.589 245.074 47.919C242.336 51.175 239.857 54.172 237.637 56.91C235.417 59.648 233.715 61.942 232.531 63.792C232.235 64.384 232.087 64.902 232.087 65.346V65.457C232.087 65.901 232.235 66.16 232.531 66.234C232.827 66.308 233.123 66.16 233.419 65.79C234.899 64.088 237.008 61.831 239.746 59.019C242.484 56.207 245.592 53.136 249.07 49.806C252.548 46.476 256.137 43.257 259.837 40.149C263.611 36.967 267.274 34.229 270.826 31.935C273.416 30.233 276.043 28.901 278.707 27.939C281.371 26.977 283.554 26.496 285.256 26.496C286.144 26.496 286.958 26.829 287.698 27.495C288.512 28.161 289.141 28.938 289.585 29.826C290.103 30.64 290.362 31.306 290.362 31.824C290.362 33.23 289.77 35.08 288.586 37.374C287.402 39.594 285.885 42.11 284.035 44.922C282.259 47.734 280.409 50.731 278.485 53.913C276.635 57.095 274.97 60.314 273.49 63.57C272.01 66.752 271.048 69.823 270.604 72.783C270.604 72.931 270.604 73.116 270.604 73.338C270.604 73.56 270.678 73.708 270.826 73.782C271.196 73.856 271.381 74.004 271.381 74.226C271.381 74.67 270.826 74.892 269.716 74.892C267.94 74.892 267.052 73.893 267.052 71.895C267.052 71.155 267.126 70.378 267.274 69.564C267.496 68.676 267.755 67.751 268.051 66.789C268.865 63.977 269.79 61.202 270.826 58.464C271.936 55.652 273.083 53.099 274.267 50.805C275.525 48.511 276.746 46.217 277.93 43.923C279.188 41.555 280.335 39.076 281.371 36.486C281.889 35.228 282.148 34.081 282.148 33.045C282.148 31.935 281.889 31.084 281.371 30.492C280.853 29.9 280.224 29.604 279.484 29.604C277.412 29.678 274.785 30.788 271.603 32.934C268.421 35.08 264.943 37.892 261.169 41.37C257.395 44.774 253.584 48.511 249.736 52.581C245.888 56.651 242.262 60.684 238.858 64.68C235.454 68.676 232.494 72.302 229.978 75.558C227.462 78.74 225.649 81.182 224.539 82.884C224.169 83.254 223.54 83.439 222.652 83.439ZM292.915 82.107C292.471 82.107 291.768 81.885 290.806 81.441C289.844 81.071 288.734 80.405 287.476 79.443C286.44 78.703 285.922 77.297 285.922 75.225C285.922 74.559 285.959 73.856 286.033 73.116C286.181 72.376 286.329 71.599 286.477 70.785C286.921 68.861 287.624 66.752 288.586 64.458C289.548 62.164 290.547 59.944 291.583 57.798C292.693 55.578 293.692 53.617 294.58 51.915C295.542 50.213 296.245 48.992 296.689 48.252C297.133 47.438 297.466 46.735 297.688 46.143C297.984 45.551 298.169 45.07 298.243 44.7V44.478C298.243 44.108 298.095 43.812 297.799 43.59C297.577 43.368 297.244 43.331 296.8 43.479C296.282 43.627 295.283 44.404 293.803 45.81C292.323 47.142 290.954 48.437 289.696 49.695C288.068 51.397 286.181 53.58 284.035 56.244C281.889 58.834 279.817 61.461 277.819 64.125C275.895 66.789 274.341 69.12 273.157 71.118C272.861 71.636 272.602 71.895 272.38 71.895C272.306 71.895 272.269 71.821 272.269 71.673C272.269 71.525 272.343 71.229 272.491 70.785C272.713 70.267 273.305 69.305 274.267 67.899C275.229 66.419 276.265 64.828 277.375 63.126C278.485 61.424 279.521 59.907 280.483 58.575C281.445 57.169 282.037 56.318 282.259 56.022C285.219 51.878 288.29 48.067 291.472 44.589C294.728 41.111 298.095 37.67 301.573 34.266C302.017 34.562 302.609 34.747 303.349 34.821C304.089 34.895 304.755 35.006 305.347 35.154C305.791 35.228 306.198 35.45 306.568 35.82C306.938 36.116 307.123 36.634 307.123 37.374C307.123 38.336 306.827 39.446 306.235 40.704C305.495 42.48 304.422 44.663 303.016 47.253C301.684 49.769 300.241 52.396 298.687 55.134C297.207 57.798 295.801 60.314 294.469 62.682C293.137 64.976 292.064 66.826 291.25 68.232C289.474 71.34 288.586 74.078 288.586 76.446C288.586 78.518 289.363 79.554 290.917 79.554C291.879 79.554 293.174 79.073 294.802 78.111C295.246 77.815 295.875 77.186 296.689 76.224C297.577 75.262 298.28 74.337 298.798 73.449C299.02 73.079 299.205 72.931 299.353 73.005C299.575 73.079 299.612 73.301 299.464 73.671C299.094 74.411 298.687 75.188 298.243 76.002C297.873 76.742 297.466 77.482 297.022 78.222C296.356 79.406 295.69 80.331 295.024 80.997C294.358 81.737 293.655 82.107 292.915 82.107ZM307.644 79.221C306.09 79.221 304.906 78.481 304.092 77.001C303.352 75.447 302.982 74.115 302.982 73.005C302.982 70.415 303.759 67.714 305.313 64.902C306.867 62.09 308.828 59.426 311.196 56.91C313.638 54.394 316.191 52.359 318.855 50.805C321.519 49.251 323.998 48.474 326.292 48.474C326.958 48.474 327.698 48.77 328.512 49.362C329.4 49.88 330.214 50.731 330.954 51.915C331.102 52.063 331.287 52.396 331.509 52.914C331.731 53.358 331.731 53.765 331.509 54.135L331.398 53.913C331.25 53.543 330.917 53.247 330.399 53.025C329.881 52.729 329.104 52.581 328.068 52.581C326.366 52.581 324.442 53.173 322.296 54.357C320.224 55.541 318.115 57.132 315.969 59.13C313.897 61.128 312.01 63.311 310.308 65.679C308.606 68.047 307.348 70.452 306.534 72.894C306.016 74.152 305.757 75.225 305.757 76.113C305.757 77.223 306.164 77.778 306.978 77.778C307.57 77.778 308.273 77.482 309.087 76.89C310.641 75.706 312.269 74.189 313.971 72.339C315.673 70.489 317.301 68.565 318.855 66.567C320.483 64.569 321.889 62.719 323.073 61.017C324.331 59.315 325.219 58.057 325.737 57.243C325.959 56.947 326.218 56.799 326.514 56.799C326.884 56.725 327.328 56.688 327.846 56.688C329.326 56.688 330.251 56.947 330.621 57.465C331.065 57.909 331.102 58.39 330.732 58.908C329.77 60.314 328.734 61.942 327.624 63.792C326.588 65.642 325.663 67.455 324.849 69.231C324.109 71.007 323.739 72.598 323.739 74.004C323.739 75.114 324.183 75.669 325.071 75.669C325.885 75.669 326.773 75.188 327.735 74.226C328.623 73.412 329.659 72.228 330.843 70.674C332.101 69.12 333.322 67.492 334.506 65.79C335.764 64.088 336.8 62.608 337.614 61.35C337.91 60.98 338.132 60.832 338.28 60.906C338.502 60.906 338.502 61.128 338.28 61.572C337.096 63.422 335.875 65.346 334.617 67.344C333.359 69.268 332.027 71.081 330.621 72.783C327.957 76.187 325.959 77.889 324.627 77.889C323.443 77.889 322.333 77.519 321.297 76.779C320.261 76.039 319.743 74.966 319.743 73.56C319.743 72.08 320.039 70.378 320.631 68.454C321.297 66.456 321.889 64.902 322.407 63.792C320.853 66.16 319.077 68.528 317.079 70.896C315.081 73.264 313.194 75.262 311.418 76.89C309.716 78.444 308.458 79.221 307.644 79.221ZM352.991 79.443C351.067 79.443 349.698 78.888 348.884 77.778C348.144 76.594 347.774 75.225 347.774 73.671C347.774 71.895 348.033 70.119 348.551 68.343C349.143 66.493 349.772 64.828 350.438 63.348C351.178 61.794 351.77 60.61 352.214 59.796C353.472 57.428 354.101 55.874 354.101 55.134C354.101 54.32 353.731 54.061 352.991 54.357C352.399 54.579 351.585 55.208 350.549 56.244C349.513 57.28 348.44 58.464 347.33 59.796C346.22 61.128 345.221 62.349 344.333 63.459C343.519 64.569 343.001 65.309 342.779 65.679C340.707 68.639 339.264 71.081 338.45 73.005C337.636 74.929 337.044 76.335 336.674 77.223C336.526 77.593 336.119 77.778 335.453 77.778C334.787 77.778 334.121 77.519 333.455 77.001C332.789 76.409 332.456 75.558 332.456 74.448C332.456 73.856 332.789 72.82 333.455 71.34C334.121 69.786 334.935 67.973 335.897 65.901C336.785 63.903 337.673 61.905 338.561 59.907C339.449 57.835 340.152 56.207 340.67 55.023C340.152 54.579 339.893 54.246 339.893 54.024C339.893 53.802 339.93 53.617 340.004 53.469C340.152 53.099 340.448 52.507 340.892 51.693C341.336 50.805 341.78 49.954 342.224 49.14C342.668 48.252 342.964 47.697 343.112 47.475C343.334 47.327 343.889 47.068 344.777 46.698C345.739 46.328 346.664 46.143 347.552 46.143H347.996C348.884 46.143 349.328 46.402 349.328 46.92C349.328 47.438 349.069 48.104 348.551 48.918C348.329 49.288 347.811 50.25 346.997 51.804C346.183 53.284 345.258 54.986 344.222 56.91C343.186 58.834 342.224 60.684 341.336 62.46C340.522 64.162 339.93 65.457 339.56 66.345C339.338 67.011 339.227 67.677 339.227 68.343C339.301 68.935 339.486 69.009 339.782 68.565C341.854 65.457 343.778 62.793 345.554 60.573C347.33 58.353 349.106 56.281 350.882 54.357C352.658 52.433 354.619 50.435 356.765 48.363C357.505 48.659 358.282 48.807 359.096 48.807C359.91 48.807 360.613 49.029 361.205 49.473C361.501 49.695 361.649 50.065 361.649 50.583C361.649 51.619 361.02 53.173 359.762 55.245C358.578 57.243 357.246 59.5 355.766 62.016C354.656 63.94 353.546 66.16 352.436 68.676C351.326 71.192 350.771 73.375 350.771 75.225C350.771 76.187 350.919 77.001 351.215 77.667C351.585 78.259 352.14 78.555 352.88 78.555C353.546 78.555 354.286 78.296 355.1 77.778C355.692 77.408 356.987 76.187 358.985 74.115C360.983 71.969 363.166 69.083 365.534 65.457C365.756 65.235 365.904 65.124 365.978 65.124C366.126 65.124 366.2 65.198 366.2 65.346C366.2 65.494 366.089 65.79 365.867 66.234C363.425 70.378 360.983 73.634 358.541 76.002C356.173 78.296 354.323 79.443 352.991 79.443Z" fill="black"/>
</svg>
